<svg viewBox="0 0 800 600" xmlns="http://www.w3.org/2000/svg">
  <rect width="800" height="600" fill="#F7F5F0"/>
  <rect x="0" y="0" width="800" height="360" fill="#EFEAE0"/>
  <rect x="0" y="360" width="800" height="240" fill="#146B5F"/>
  <rect x="60" y="380" width="680" height="10" fill="#0B3B36"/>
  <g fill="#F7F5F0" opacity="0.18">
    <rect x="80" y="400" width="60" height="10"/><rect x="160" y="400" width="60" height="10"/><rect x="240" y="400" width="60" height="10"/><rect x="320" y="400" width="60" height="10"/>
    <rect x="400" y="400" width="60" height="10"/><rect x="480" y="400" width="60" height="10"/><rect x="560" y="400" width="60" height="10"/><rect x="640" y="400" width="60" height="10"/>
  </g>
  <rect x="0" y="20" width="800" height="60" fill="#0B3B36" opacity="0.06"/>
  <g>
    <rect x="150" y="440" width="30" height="80" fill="#C9973E"/>
    <rect x="140" y="430" width="50" height="14" rx="6" fill="#C9973E"/>
    <rect x="250" y="450" width="30" height="70" fill="#5B6764"/>
    <rect x="240" y="440" width="50" height="14" rx="6" fill="#5B6764"/>
    <rect x="550" y="440" width="30" height="80" fill="#C9973E"/>
    <rect x="540" y="430" width="50" height="14" rx="6" fill="#C9973E"/>
    <rect x="650" y="450" width="30" height="70" fill="#5B6764"/>
    <rect x="640" y="440" width="50" height="14" rx="6" fill="#5B6764"/>
  </g>
  <g fill="#0B3B36" opacity="0.5">
    <circle cx="200" cy="150" r="60"/>
    <rect x="380" y="80" width="180" height="140" rx="8"/>
  </g>
</svg>
